<svg width="420" height="360" viewBox="0 0 420 360" xmlns="http://www.w3.org/2000/svg">
  <defs>
    <linearGradient id="bg" x1="0%" y1="100%" x2="100%" y2="0%">
      <stop offset="0%" stop-color="#161821" />
      <stop offset="100%" stop-color="#1F2940" />
    </linearGradient>
    <linearGradient id="accent" x1="20%" y1="80%" x2="80%" y2="20%">
      <stop offset="0%" stop-color="#2F80ED" />
      <stop offset="100%" stop-color="#56CCF2" />
    </linearGradient>
    <filter id="shadow" x="-20%" y="-20%" width="140%" height="140%">
      <feGaussianBlur in="SourceAlpha" stdDeviation="18" result="shadow" />
      <feOffset dx="0" dy="18" />
      <feColorMatrix in="shadow" type="matrix" values="0 0 0 0 0.16 0 0 0 0 0.28 0 0 0 0 0.49 0 0 0 0.25 0" />
      <feBlend in="SourceGraphic" mode="normal" />
    </filter>
  </defs>
  <rect x="20" y="20" width="380" height="320" rx="32" fill="url(#bg)" filter="url(#shadow)" />
  <rect x="80" y="60" width="200" height="280" rx="32" fill="#0F131E" stroke="#1E2334" stroke-width="4" />
  <rect x="92" y="100" width="176" height="120" rx="20" fill="#151C30" />
  <rect x="112" y="120" width="60" height="16" rx="8" fill="url(#accent)" />
  <rect x="112" y="150" width="120" height="12" rx="6" fill="#222C46" />
  <rect x="112" y="170" width="132" height="12" rx="6" fill="#222C46" opacity="0.8" />
  <rect x="112" y="208" width="64" height="64" rx="16" fill="#10172B" stroke="#2F80ED" stroke-width="2" />
  <rect x="184" y="208" width="84" height="20" rx="10" fill="#18213A" />
  <rect x="184" y="236" width="72" height="12" rx="6" fill="#18213A" opacity="0.7" />
  <rect x="184" y="256" width="96" height="12" rx="6" fill="url(#accent)" opacity="0.8" />
  <circle cx="180" cy="78" r="8" fill="#2F80ED" />
  <rect x="150" y="76" width="36" height="4" rx="2" fill="#242B43" />
  <g transform="translate(300 110)">
    <path
      d="M60 0C26.863 0 0 26.863 0 60s26.863 60 60 60 60-26.863 60-60S93.137 0 60 0zm0 8c28.72 0 52 23.28 52 52s-23.28 52-52 52S8 88.72 8 60 31.28 8 60 8z"
      fill="rgba(47,128,237,0.35)"
    />
    <path
      d="M60 28c-17.121 0-31 13.879-31 31s13.879 31 31 31 31-13.879 31-31h-10c0 11.58-9.42 21-21 21s-21-9.42-21-21 9.42-21 21-21V28z"
      fill="url(#accent)"
    />
    <circle cx="90" cy="30" r="12" fill="url(#accent)" opacity="0.7" />
  </g>
</svg>
