<svg width="360" height="320" viewBox="0 0 360 320" xmlns="http://www.w3.org/2000/svg">
  <defs>
    <linearGradient id="shell" x1="12%" y1="92%" x2="88%" y2="8%">
      <stop offset="0%" stop-color="#101523" />
      <stop offset="100%" stop-color="#182447" />
    </linearGradient>
    <linearGradient id="cta" x1="0%" y1="50%" x2="100%" y2="50%">
      <stop offset="0%" stop-color="#56CCF2" />
      <stop offset="100%" stop-color="#3A7BFF" />
    </linearGradient>
  </defs>
  <g fill="none" fill-rule="evenodd">
    <rect x="70" y="20" width="220" height="280" rx="32" fill="url(#shell)" />
    <rect x="90" y="44" width="180" height="16" rx="8" fill="#1F2740" />
    <rect x="90" y="70" width="180" height="210" rx="22" fill="#0E142A" />
    <rect x="106" y="90" width="60" height="12" rx="6" fill="#222B4A" />
    <rect x="170" y="90" width="60" height="12" rx="6" fill="#222B4A" opacity="0.6" />
    <rect x="234" y="90" width="20" height="12" rx="6" fill="#222B4A" opacity="0.3" />
    <rect x="106" y="122" width="60" height="60" rx="16" fill="#121932" />
    <rect x="170" y="122" width="60" height="60" rx="16" fill="#121932" />
    <rect x="234" y="122" width="20" height="60" rx="10" fill="#121932" opacity="0.4" />
    <rect x="114" y="135" width="44" height="12" rx="6" fill="#27325A" />
    <rect x="114" y="156" width="32" height="10" rx="5" fill="#2E3A68" />
    <rect x="178" y="135" width="44" height="12" rx="6" fill="#27325A" />
    <rect x="178" y="156" width="32" height="10" rx="5" fill="#2E3A68" />
    <rect x="106" y="198" width="148" height="60" rx="18" fill="#121932" />
    <rect x="122" y="214" width="64" height="14" rx="7" fill="#27325A" />
    <rect x="122" y="236" width="80" height="10" rx="5" fill="#2E3A68" />
    <rect x="210" y="236" width="36" height="10" rx="5" fill="url(#cta)" />
    <rect x="106" y="268" width="148" height="6" rx="3" fill="#1B233D" />
    <circle cx="180" cy="36" r="6" fill="#56CCF2" />
  </g>
</svg>
