<svg width="1024" height="1024" viewBox="0 0 1024 1024" fill="none" xmlns="http://www.w3.org/2000/svg">
  <defs>
    <linearGradient id="bg" x1="0%" y1="0%" x2="100%" y2="100%">
      <stop offset="0%" stop-color="#8D6BFF" />
      <stop offset="100%" stop-color="#4B2CD9" />
    </linearGradient>
    <linearGradient id="pin" x1="0%" y1="0%" x2="100%" y2="100%">
      <stop offset="0%" stop-color="#FFFFFF" stop-opacity="0.95" />
      <stop offset="100%" stop-color="#E5DEFF" />
    </linearGradient>
    <radialGradient id="glow" cx="50%" cy="35%" r="70%">
      <stop offset="0%" stop-color="#FFFFFF" stop-opacity="0.35" />
      <stop offset="100%" stop-color="#FFFFFF" stop-opacity="0" />
    </radialGradient>
    <filter id="softShadow" x="-20%" y="-20%" width="140%" height="160%">
      <feDropShadow dx="0" dy="24" stdDeviation="32" flood-color="#1B0A60" flood-opacity="0.35" />
    </filter>
  </defs>

  <!-- background circle -->
  <circle cx="512" cy="512" r="432" fill="url(#bg)" filter="url(#softShadow)" />
  <circle cx="512" cy="400" r="280" fill="url(#glow)" />
  <circle cx="512" cy="512" r="420" stroke="#FFFFFF" stroke-opacity="0.15" stroke-width="12" fill="none" />
  <circle cx="512" cy="512" r="330" stroke="#FFFFFF" stroke-opacity="0.15" stroke-width="10" fill="none" />

  <!-- location loop mark -->
  <path
    d="M512 268C392 268 296 364 296 484C296 656 484 806 500 818C506 822 514 822 520 818C536 806 728 656 728 484C728 364 632 268 512 268Z"
    fill="url(#pin)" />
  <path
    d="M512 324C625 324 717 416 717 528C717 659 568 781 515 820C513 822 511 822 509 820C456 781 307 659 307 528C307 416 399 324 512 324Z"
    fill="none" stroke="#8D6BFF" stroke-opacity="0.2" stroke-width="24" />
  <circle cx="512" cy="472" r="96" fill="none" stroke="#6C4DF4" stroke-width="32" />

  <!-- inner loop spark -->
  <path
    d="M566 618C614 618 654 648 666 692C668 700 661 708 653 705C592 684 538 668 480 668C422 668 368 684 307 705C299 708 292 700 294 692C306 648 346 618 394 618H566Z"
    fill="#F8F6FF" opacity="0.85" />
  <circle cx="638" cy="360" r="32" fill="#FFFFFF" opacity="0.9" />
  <circle cx="428" cy="336" r="20" fill="#FFFFFF" opacity="0.75" />
</svg>
