<svg width="360" height="320" viewBox="0 0 360 320" xmlns="http://www.w3.org/2000/svg">
  <defs>
    <linearGradient id="device" x1="8%" y1="92%" x2="92%" y2="8%">
      <stop offset="0%" stop-color="#101426" />
      <stop offset="100%" stop-color="#192140" />
    </linearGradient>
    <linearGradient id="accent" x1="0%" y1="50%" x2="100%" y2="50%">
      <stop offset="0%" stop-color="#3A7BFF" />
      <stop offset="100%" stop-color="#7C46FF" />
    </linearGradient>
  </defs>
  <g fill="none" fill-rule="evenodd">
    <rect x="70" y="20" width="220" height="280" rx="32" fill="url(#device)" />
    <rect x="90" y="44" width="180" height="16" rx="8" fill="#232B46" />
    <rect x="90" y="70" width="180" height="210" rx="22" fill="#0D1224" />
    <rect x="106" y="90" width="92" height="12" rx="6" fill="#1E2642" />
    <rect x="106" y="110" width="128" height="10" rx="5" fill="#2A3354" />
    <rect x="106" y="132" width="148" height="66" rx="18" fill="#11182F" />
    <rect x="122" y="148" width="80" height="12" rx="6" fill="#222A45" />
    <rect x="122" y="168" width="112" height="10" rx="5" fill="#273155" />
    <rect x="106" y="210" width="148" height="66" rx="18" fill="#11182F" />
    <rect x="122" y="226" width="92" height="12" rx="6" fill="#222A45" />
    <rect x="122" y="246" width="74" height="10" rx="5" fill="#273155" />
    <rect x="198" y="246" width="40" height="10" rx="5" fill="url(#accent)" />
    <rect x="106" y="274" width="148" height="6" rx="3" fill="#1A2038" />
    <circle cx="180" cy="36" r="6" fill="#3A7BFF" />
  </g>
</svg>
